<?xml version="1.0" standalone="no"?>
<!DOCTYPE svg PUBLIC "-//W3C//DTD SVG 20010904//EN"
 "http://www.w3.org/TR/2001/REC-SVG-20010904/DTD/svg10.dtd">
<svg version="1.0" xmlns="http://www.w3.org/2000/svg"
 width="300.000000pt" height="100.000000pt" viewBox="0 0 300.000000 100.000000"
 preserveAspectRatio="xMidYMid meet">

<g transform="translate(0.000000,100.000000) scale(0.100000,-0.100000)"
fill="#fff" stroke="none">
<path d="M210 936 c-68 -49 -126 -121 -152 -185 -19 -47 -23 -75 -23 -176 0
-112 2 -124 28 -175 52 -100 149 -182 266 -221 52 -18 61 -24 61 -45 0 -18 -5
-24 -23 -24 -38 0 -61 -23 -53 -53 l6 -27 108 0 c111 0 132 7 132 42 0 21 -29
38 -65 38 -22 0 -26 4 -23 22 2 16 11 24 28 26 35 4 123 33 138 45 7 6 12 22
10 36 -4 33 -33 38 -93 15 -33 -12 -65 -15 -124 -12 -135 8 -236 75 -297 197
-24 48 -28 68 -29 141 0 72 4 94 26 141 33 69 86 129 145 164 44 26 55 50 32
73 -20 20 -51 13 -98 -22z"/>
<path d="M397 858 c-109 -20 -197 -110 -218 -223 -24 -131 50 -262 175 -310
72 -28 176 -17 244 24 84 52 132 137 132 234 0 69 -16 117 -59 173 -62 82
-169 122 -274 102z m165 -107 c106 -73 117 -227 23 -309 -129 -114 -328 -27
-328 143 0 78 39 142 108 180 45 24 152 17 197 -14z"/>
<path d="M782 678 c-8 -8 -12 -64 -12 -185 l0 -173 35 0 35 0 0 150 0 150 130
0 130 0 0 35 0 35 -153 0 c-106 0 -157 -4 -165 -12z"/>
<path d="M1237 683 c-11 -11 -8 -323 3 -344 10 -18 23 -19 170 -19 l160 0 0
35 0 35 -135 0 -135 0 0 150 0 150 -28 0 c-16 0 -32 -3 -35 -7z"/>
<path d="M1700 665 c-17 -43 -12 -252 5 -290 23 -47 50 -55 196 -55 l130 0 -3
33 -3 32 -130 5 -130 5 -3 113 -3 112 136 0 136 0 -3 33 -3 32 -158 3 -157 3
-10 -26z"/>
<path d="M2183 683 c-10 -3 -13 -45 -13 -157 0 -151 0 -153 26 -177 24 -23 33
-24 165 -27 l139 -4 0 36 0 36 -129 0 c-108 0 -130 3 -135 16 -3 9 -6 60 -6
115 l0 99 135 0 135 0 0 35 0 35 -152 -1 c-84 0 -159 -3 -165 -6z"/>
<path d="M2610 655 l0 -35 75 0 75 0 0 -150 0 -150 35 0 35 0 0 150 0 150 70
0 70 0 0 35 0 35 -180 0 -180 0 0 -35z"/>
<path d="M860 505 l0 -35 105 0 105 0 0 35 0 35 -105 0 -105 0 0 -35z"/>
<path d="M1790 505 l0 -35 106 0 105 0 -3 33 -3 32 -102 3 -103 3 0 -36z"/>
<path d="M2260 505 l0 -35 105 0 105 0 0 35 0 35 -105 0 -105 0 0 -35z"/>
</g>
</svg>
